<?xml version="1.0" encoding="utf-8"?>
<!-- Generator: Adobe Illustrator 25.0.0, SVG Export Plug-In . SVG Version: 6.00 Build 0)  -->
<svg version="1.1" id="Layer_1" xmlns="http://www.w3.org/2000/svg" xmlns:xlink="http://www.w3.org/1999/xlink" x="0px" y="0px"
	 viewBox="0 0 290.1269 268.4268" enable-background="new 0 0 290.1269 268.4268" xml:space="preserve">
<g>
	<path d="M121.3567,36.6316L109.5224,0l-7.9372,2.8062l13.379,34.7834c1.9796-0.6181,4.0482-0.958,6.1436-0.958H121.3567z"/>
	<path d="M175.1627,37.5897l13.379-34.7834L180.6045,0l-11.8344,36.6316h0.2488C171.1145,36.6316,173.1831,36.9716,175.1627,37.5897
		z"/>
	<path d="M145.0634,31.0415c-6.6544,0-12.7446,2.372-17.4595,5.5901h34.9191C157.808,33.4135,151.7178,31.0415,145.0634,31.0415z"/>
	<path d="M213.7528,116.9321c0.2939,1.3232,0.8535,2.5732,1.6445,3.6733l12.9081,17.9444l0.6323,19.6476
		c0,2.1468,0.8257,2.0643,0.8257,2.0643s32.367,26.7523,33.8532,27.9908c1.4863,1.2385,2.8074,0.9083,2.8074,0.9083
		s15.6055-3.633,18.6605-4.6238s2.8899-4.7064,2.8899-4.7064s2.1468-41.0367,2.1468-44.9174
		c0.1342-3.1892-2.1468-3.8807-2.1468-3.8807l-41.9525-12.5121c-0.2681-0.08-0.5408-0.1121-0.82-0.0939
		c-0.9912,0.0644-3.6261,0.2355-6.4351,0.4172l-5.934-8.2493l-2.6321-11.8625l-19.6063,3.9666L213.7528,116.9321z M270.313,145.6876
		c0.4678-1.2322,1.1306-2.3752,1.9388-3.368c0.8071-0.9914,1.7574-1.8307,2.801-2.4584c1.0397-0.6255,2.1696-1.0396,3.3398-1.1852
		c1.1638-0.1448,2.2566-0.0103,3.2356,0.3547c0.9729,0.3626,1.8334,0.9528,2.5405,1.7227c0.7029,0.7653,1.2547,1.7086,1.6158,2.7842
		c0.3593,1.07,0.5303,2.2723,0.4738,3.5634c-0.0565,1.2887-0.3337,2.5462-0.7865,3.7189c-0.4524,1.1716-1.0811,2.2613-1.8422,3.2148
		c-0.7621,0.9548-1.6587,1.7752-2.6464,2.4054c-0.9913,0.6325-2.0764,1.0748-3.212,1.2692
		c-1.1418,0.1955-2.2284,0.1221-3.2161-0.1802c-0.994-0.3043-1.8881-0.8405-2.6368-1.5679
		c-0.7534-0.7319-1.3593-1.657-1.7706-2.7327c-0.4136-1.0815-0.63-2.3138-0.6019-3.6522
		C269.5739,148.2354,269.8456,146.9185,270.313,145.6876z M269.7785,170.08c0.4519-1.1786,1.0927-2.2859,1.8743-3.2623
		c0.7806-0.975,1.7001-1.817,2.7101-2.4676c1.0063-0.6483,2.1005-1.1051,3.2343-1.314c1.1277-0.2078,2.1871-0.1505,3.1367,0.129
		c0.9439,0.2778,1.7792,0.775,2.4661,1.4497c0.683,0.6708,1.2198,1.5173,1.5718,2.4995c0.3503,0.9772,0.5181,2.0899,0.4651,3.2997
		c-0.0529,1.2077-0.3202,2.4001-0.7581,3.524c-0.4375,1.1228-1.0463,2.1801-1.7838,3.1181
		c-0.7384,0.9392-1.6075,1.761-2.5651,2.4105c-0.9609,0.6517-2.0131,1.1313-3.1143,1.3822
		c-1.107,0.2523-2.1605,0.2498-3.1182,0.0274c-0.9636-0.2238-1.8304-0.6702-2.5564-1.304
		c-0.7303-0.6376-1.3178-1.4645-1.7169-2.4438c-0.4012-0.9844-0.6116-2.1215-0.5854-3.3723
		C269.065,172.5028,269.327,171.2573,269.7785,170.08z"/>
	<path d="M273.9005,174.3029c0.1722,0.438,0.4281,0.8096,0.7483,1.0981c0.3193,0.2878,0.7025,0.4929,1.1304,0.599
		c0.4267,0.1058,0.8978,0.1132,1.3947,0.0059c0.4958-0.1071,0.9708-0.3183,1.4055-0.6086c0.217-0.1449,0.4241-0.3096,0.6187-0.491
		s0.3769-0.3795,0.5443-0.5912c0.1674-0.2115,0.3199-0.4368,0.4554-0.6727c0.1354-0.2359,0.2537-0.4825,0.3522-0.7366
		c0.0987-0.2543,0.1777-0.5163,0.2347-0.783c0.0569-0.2667,0.0919-0.5381,0.1021-0.8112c0.0205-0.545-0.0594-1.0448-0.222-1.4822
		c-0.1629-0.4384-0.4088-0.8143-0.7197-1.11c-0.3117-0.2965-0.6887-0.5126-1.1128-0.6301
		c-0.4252-0.1179-0.8977-0.1366-1.3988-0.0381c-0.5021,0.0987-0.9854,0.3058-1.429,0.5961
		c-0.2221,0.1453-0.4342,0.3115-0.6337,0.4951s-0.3863,0.3849-0.5579,0.6005c-0.1717,0.2156-0.328,0.4456-0.4664,0.6865
		s-0.2589,0.4928-0.3589,0.7524c-0.1999,0.519-0.3177,1.0684-0.3329,1.622C273.6394,173.3584,273.7279,173.8638,273.9005,174.3029z"
		/>
	<path d="M274.8932,151.1621c0.1293,0.2053,0.2778,0.3917,0.4428,0.557c0.3292,0.3298,0.7242,0.5753,1.1655,0.7179
		c0.22,0.071,0.4515,0.1165,0.6921,0.1341s0.4902,0.0071,0.7464-0.0334c0.5114-0.0811,1.0015-0.2749,1.4501-0.5562
		c0.4478-0.2808,0.8547-0.6489,1.2004-1.0793c0.1728-0.2151,0.3304-0.4459,0.4703-0.6891c0.1399-0.2433,0.2621-0.4991,0.3641-0.7645
		c0.204-0.5309,0.3273-1.1003,0.3494-1.6835c0.0219-0.582-0.0599-1.1225-0.2268-1.6019c-0.1674-0.4805-0.4203-0.8998-0.7405-1.2377
		c-0.1605-0.1694-0.3378-0.3184-0.5297-0.4445c-0.1919-0.126-0.3983-0.2291-0.6169-0.3065
		c-0.4385-0.1553-0.9258-0.2078-1.4429-0.1367c-0.5182,0.0714-1.017,0.2601-1.4751,0.5406
		c-0.4588,0.2809-0.8762,0.6537-1.2309,1.092c-0.3549,0.4386-0.6464,0.9424-0.8534,1.485c-0.2069,0.5423-0.329,1.1227-0.3453,1.7147
		c-0.0163,0.5932,0.0745,1.1405,0.2521,1.6223C274.6537,150.7329,274.7639,150.9569,274.8932,151.1621z"/>
	<path d="M198.1727,97.267l1.3203-0.2736l2.9379-0.6086l0.9532,4.7115l34.6534-7.0109l-0.9859-4.873l0.9053-0.1876
		c0.8909-0.1846,1.5489-0.8541,1.7787-1.6736c0.0983-0.3506,0.1263-0.7257,0.0474-1.1068l-4.7343-22.8526
		c-2.2942-11.074-13.1313-18.1915-24.2053-15.8973l-21.8728,4.5313c0.1017,0.3856,0.2085,0.7696,0.2877,1.1618L198.1727,97.267z
		 M212.6303,60.7526c6.4746-1.3171,12.8137,2.8788,14.1309,9.3534c1.3171,6.4745-2.8788,12.8137-9.3534,14.1309
		s-12.8137-2.8788-14.1309-9.3534S206.1558,62.0697,212.6303,60.7526z"/>
	<path d="M206.1053,74.3079c1.0015,4.9229,5.8041,8.1017,10.727,7.1003c4.9229-1.0015,8.1018-5.8041,7.1003-10.727
		c-1.0015-4.9229-5.8041-8.1018-10.727-7.1003C208.2827,64.5824,205.1038,69.385,206.1053,74.3079z M215.9693,77.1656
		c-2.5757,0.524-5.0971-1.1449-5.6211-3.7207c-0.524-2.5757,1.1449-5.0971,3.7206-5.6211c2.5758-0.524,5.0971,1.1449,5.6212,3.7207
		C220.214,74.1202,218.5451,76.6416,215.9693,77.1656z"/>
	<path d="M5.0424,184.5369c3.055,0.9908,18.6605,4.6238,18.6605,4.6238s1.3211,0.3303,2.8073-0.9083
		c1.4863-1.2385,33.8532-27.9908,33.8532-27.9908s0.8257,0.0825,0.8257-2.0643l0.6323-19.648l12.9078-17.944
		c0.791-1.1001,1.3506-2.3501,1.6445-3.6733l3.1584-14.2339l-19.6063-3.9666l-2.6321,11.8626l-5.934,8.2492
		c-2.8089-0.1818-5.4436-0.3528-6.4348-0.4172c-0.2791-0.0181-0.5519,0.014-0.8199,0.0939L2.1525,131.0323
		c0,0-2.2809,0.6915-2.1468,3.8807c0,3.8807,2.1468,44.9174,2.1468,44.9174S1.9874,183.5461,5.0424,184.5369z M20.5028,177.1283
		c-0.3991,0.9793-0.9866,1.8062-1.7169,2.4438c-0.726,0.6339-1.5928,1.0803-2.5564,1.304
		c-0.9578,0.2224-2.0113,0.2249-3.1183-0.0274c-1.1012-0.2509-2.1533-0.7305-3.1143-1.3822
		c-0.9576-0.6495-1.8267-1.4713-2.5651-2.4105c-0.7374-0.938-1.3462-1.9953-1.7837-3.1181c-0.4379-1.124-0.7053-2.3163-0.7582-3.524
		c-0.053-1.2098,0.1148-2.3224,0.4651-3.2997c0.3521-0.9821,0.8888-1.8287,1.5718-2.4995c0.687-0.6747,1.5223-1.1719,2.4661-1.4497
		c0.9496-0.2794,2.009-0.3367,3.1367-0.129c1.1339,0.2089,2.228,0.6657,3.2344,1.314c1.0099,0.6506,1.9294,1.4926,2.7101,2.4676
		c0.7817,0.9763,1.4224,2.0837,1.8743,3.2623c0.4515,1.1773,0.7135,2.4229,0.7398,3.676
		C21.1145,175.0068,20.904,176.1439,20.5028,177.1283z M4.3424,143.5375c0.3612-1.0756,0.913-2.0189,1.6158-2.7842
		c0.7072-0.7699,1.5676-1.3601,2.5405-1.7227c0.9791-0.365,2.0718-0.4995,3.2356-0.3547c1.1703,0.1456,2.3002,0.5597,3.3398,1.1852
		c1.0435,0.6277,1.9938,1.467,2.801,2.4584c0.8083,0.9928,1.4711,2.1358,1.9389,3.368c0.4673,1.2309,0.739,2.5477,0.7672,3.8887
		c0.0281,1.3383-0.1884,2.5707-0.6019,3.6522c-0.4114,1.0757-1.0172,2.0009-1.7706,2.7327
		c-0.7488,0.7274-1.6429,1.2636-2.6368,1.5679c-0.9878,0.3024-2.0743,0.3757-3.2161,0.1802
		c-1.1356-0.1944-2.2208-0.6367-3.212-1.2692c-0.9877-0.6302-1.8843-1.4506-2.6464-2.4054
		c-0.7611-0.9536-1.3898-2.0433-1.8422-3.2148c-0.4528-1.1727-0.7301-2.4302-0.7866-3.7189
		C3.8121,145.8099,3.9831,144.6075,4.3424,143.5375z"/>
	<path d="M16.1393,171.1816c-0.2-0.5193-0.482-1.0076-0.8254-1.4389c-0.3432-0.4311-0.7473-0.8049-1.1916-1.0956
		c-0.4436-0.2902-0.9268-0.4974-1.429-0.5961c-0.5011-0.0984-0.9736-0.0797-1.3988,0.0381
		c-0.4241,0.1175-0.8011,0.3336-1.1127,0.6301c-0.3109,0.2958-0.5568,0.6717-0.7197,1.11c-0.1625,0.4374-0.2426,0.9372-0.222,1.4822
		c0.0206,0.5461,0.1395,1.0857,0.3367,1.5942c0.1972,0.5083,0.473,0.9863,0.8076,1.4094c0.1675,0.2117,0.3497,0.4098,0.5444,0.5912
		c0.1946,0.1814,0.4017,0.3461,0.6187,0.491c0.4347,0.2903,0.9097,0.5015,1.4055,0.6086c0.4968,0.1074,0.968,0.1,1.3947-0.0059
		c0.4279-0.1061,0.811-0.3112,1.1304-0.599c0.3201-0.2885,0.576-0.6601,0.7483-1.0981c0.1726-0.439,0.261-0.9445,0.2458-1.4993
		c-0.0076-0.2768-0.0409-0.5526-0.0972-0.824S16.2393,171.4411,16.1393,171.1816z"/>
	<path d="M8.7019,149.4486c0.204,0.5306,0.4888,1.0234,0.8344,1.4536c0.3458,0.4304,0.7527,0.7985,1.2005,1.0793
		c0.4485,0.2812,0.9386,0.4751,1.45,0.5562c0.5125,0.0812,0.9985,0.0415,1.4385-0.1006c0.4412-0.1426,0.8363-0.3881,1.1655-0.7179
		c0.3301-0.3306,0.5938-0.7459,0.7711-1.2266c0.1777-0.4818,0.2684-1.0292,0.2521-1.6223c-0.0081-0.296-0.0428-0.589-0.1012-0.8759
		c-0.0584-0.2869-0.1406-0.5676-0.2441-0.8387c-0.207-0.5426-0.4986-1.0464-0.8535-1.485c-0.3546-0.4384-0.7721-0.8111-1.2309-1.092
		c-0.4581-0.2805-0.9569-0.4693-1.475-0.5406c-0.5171-0.0711-1.0045-0.0187-1.4429,0.1367
		c-0.4372,0.1549-0.8257,0.4121-1.1467,0.751c-0.3201,0.338-0.5732,0.7573-0.7405,1.2377c-0.167,0.4794-0.2488,1.0199-0.2268,1.6019
		C8.3745,148.3483,8.4978,148.9177,8.7019,149.4486z"/>
	<path d="M52.1701,89.0249l0.9053,0.1876l-0.9859,4.873l34.6534,7.0109l0.9532-4.7115l2.9379,0.6086l1.3203,0.2735l8.9144-44.0797
		c0.0792-0.392,0.186-0.7759,0.2877-1.1613l-21.8727-4.5313c-11.074-2.2942-21.9111,4.8232-24.2053,15.8973L50.344,86.2445
		c-0.0789,0.3811-0.0508,0.7562,0.0474,1.1068C50.6212,88.1708,51.2791,88.8403,52.1701,89.0249z M63.3657,70.106
		c1.3171-6.4746,7.6562-10.6705,14.1309-9.3534s10.6705,7.6562,9.3534,14.1309c-1.3172,6.4746-7.6563,10.6705-14.1309,9.3534
		S62.0485,76.5805,63.3657,70.106z"/>
	<path d="M73.2946,81.4082c4.9229,1.0015,9.7255-2.1774,10.727-7.1003c1.0015-4.9229-2.1774-9.7255-7.1003-10.7271
		c-4.9229-1.0015-9.7255,2.1774-10.727,7.1003C65.1928,75.6041,68.3717,80.4067,73.2946,81.4082z M79.7787,73.4449
		c-0.524,2.5758-3.0454,4.2447-5.6212,3.7207s-4.2446-3.0453-3.7206-5.6211c0.524-2.5758,3.0453-4.2447,5.6211-3.7207
		S80.3027,70.8691,79.7787,73.4449z"/>
	<path d="M145.0639,158.5554c-5.5879,0-11.0098-1.1499-16.1162-3.4185l-9.2191-4.0952v7.6512l7.8831,3.7767l1.4414,7.0123h-3.9713
		v2.066h-8.9953v-7.8698c0-3.1315-2.5386-5.67-5.67-5.67h-5.6371v-4.932H80.3181v4.932h-5.6353c-3.1315,0-5.67,2.5385-5.67,5.67
		v25.1801c0,3.1315,2.5385,5.67,5.67,5.67h0.6162v6.2125h5.019v13.4155h-3.1024v21.3655h0.4537
		c0.8405-0.2158,1.7166-0.3427,2.6244-0.3427h24.5112c0.9078,0,1.7839,0.127,2.6243,0.3427h0.4542v-21.3655h-3.1042v-13.4155h5.021
		v-6.2125h0.6161c3.1315,0,5.67-2.5385,5.67-5.67v-7.8698h8.9953v2.1447h6.7773l0.2847,1.3849
		c0.6972,3.3918,3.6828,5.8261,7.1455,5.8261h11.5483c3.4627,0,6.4483-2.4343,7.1455-5.8261l0.2847-1.3849h6.7773v-2.1447h8.9953
		v7.8698c0,3.1315,2.5385,5.67,5.67,5.67h0.6162v6.2125h5.019v13.4155h-3.1024v21.3655h0.4537
		c0.8405-0.2158,1.7166-0.3427,2.6244-0.3427h24.5112c0.9078,0,1.7839,0.127,2.6243,0.3427h0.4542v-21.3655h-3.1042v-13.4155h5.021
		v-6.2125h0.6161c3.1315,0,5.67-2.5385,5.67-5.67v-25.1801c0-3.1315-2.5386-5.67-5.67-5.67h-5.6371v-4.932h-24.4612v4.932h-5.6353
		c-3.1315,0-5.67,2.5385-5.67,5.67v7.8698h-8.9953v-2.066h-3.9713l1.4414-7.0123l7.8831-3.7767v-7.6509l-9.2182,4.095
		C156.0737,157.4055,150.6518,158.5554,145.0639,158.5554z M77.7492,179.8553v-2h29.601v2H77.7492z M77.7492,174.681v-2h29.601v2
		H77.7492z M212.3776,174.681h-29.6009v-2h29.6009V174.681z M212.3776,177.8553v2h-29.6009v-2H212.3776z"/>
	<path d="M217.3745,245.7204c0-4.1649-3.3764-7.5413-7.5413-7.5413h-24.512c-4.1649,0-7.5413,3.3763-7.5413,7.5413v8.4221h-2.9996
		h-8.1389c-4.3777,0-7.9266,3.5488-7.9266,7.9266v0.6785h-1.9973v5.6793h81.7195v-5.6793h-1.9974v-0.6785
		c0-4.3777-3.5488-7.9266-7.9266-7.9266h-8.1389h-2.9996V245.7204z"/>
	<path d="M112.347,245.7204c0-4.1649-3.3764-7.5413-7.5413-7.5413h-24.512c-4.1649,0-7.5413,3.3763-7.5413,7.5413v8.4221h-2.9996
		h-8.1389c-4.3777,0-7.9266,3.5488-7.9266,7.9266v0.6785H51.69v5.6793h81.7195v-5.6793h-1.9974v-0.6785
		c0-4.3777-3.5488-7.9266-7.9266-7.9266h-8.1389h-2.9996V245.7204z"/>
	<path d="M195.1543,118.6136c-0.6799,0.4877-1.4116,0.9207-2.2046,1.2729l-31.7695,14.1128
		c-5.1064,2.2686-10.5283,3.4185-16.1162,3.4185s-11.0098-1.1499-16.1162-3.4185l-31.7705-14.1128
		c-0.793-0.3523-1.5247-0.7855-2.2045-1.2732l-1.8951,9.3708c-0.8604,4.2546,1.3501,8.5359,5.317,10.2982l31.7704,14.1132
		c9.4854,4.2137,20.3115,4.2137,29.7969,0l31.7703-14.1132c3.967-1.7622,6.1774-6.0435,5.317-10.2982L195.1543,118.6136z
		 M145.0634,142.7305c1.7632,0,3.1927,1.4294,3.1927,3.1926s-1.4294,3.1927-3.1927,3.1927s-3.1926-1.4294-3.1926-3.1927
		S143.3002,142.7305,145.0634,142.7305z M101.5772,133.592c-1.7632,0-3.1927-1.4294-3.1927-3.1927s1.4294-3.1926,3.1927-3.1926
		s3.1926,1.4294,3.1926,3.1926S103.3405,133.592,101.5772,133.592z M188.5497,133.592c-1.7632,0-3.1927-1.4294-3.1927-3.1927
		s1.4294-3.1926,3.1927-3.1926s3.1926,1.4294,3.1926,3.1926S190.3129,133.592,188.5497,133.592z"/>
	<path d="M98.3946,117.1446l31.7704,14.1132c9.4854,4.2137,20.3115,4.2137,29.7969,0l31.7703-14.1132
		c3.967-1.7622,6.1774-6.0435,5.317-10.2982l-10.7312-53.0642c-0.8324-4.116-3.0574-7.6537-6.1242-10.1624
		s-6.9753-3.9883-11.1747-3.9883h-47.9114c-4.1994,0-8.1079,1.4797-11.1747,3.9883c-3.0668,2.5087-5.2919,6.0464-6.1243,10.1624
		l-10.7312,53.0642C92.2172,111.1011,94.4277,115.3824,98.3946,117.1446z M118.8202,73.8205
		c0-7.9515,12.1403-12.0768,24.7432-12.3801v42.2647C129.7681,102.8178,118.8202,89.7794,118.8202,73.8205z M146.5634,103.7051
		V61.4404c12.603,0.3032,24.7433,4.4285,24.7433,12.3801C171.3067,89.7794,160.3588,102.8178,146.5634,103.7051z"/>
</g>
</svg>
